<?xml version="1.0" encoding="utf-8"?>
<svg xmlns="http://www.w3.org/2000/svg" fill="none" height="100%" overflow="visible" preserveAspectRatio="none" style="display: block;" viewBox="0 0 59 77.6709" width="100%">
<g id="Frame 3316">
<path d="M29.5 1C37.2663 1 44.3693 5.14165 49.5635 11.9795C54.7581 18.818 57.9999 28.3095 58 38.835C58 49.3606 54.7581 58.8528 49.5635 65.6914C44.3693 72.5293 37.2663 76.6709 29.5 76.6709C21.7337 76.6709 14.6307 72.5293 9.43652 65.6914C4.24185 58.8528 1 49.3606 1 38.835C1.0001 28.3095 4.24194 18.818 9.43652 11.9795C14.6307 5.14165 21.7337 1 29.5 1Z" id="Ellipse 146" stroke="var(--stroke-0, #E4B587)" stroke-width="2"/>
<g id=" ">
<path d="M26.7843 30.1746L25.6714 54.1016H39.7215L40.8692 30.1746H42.1907L41.0779 54.1016H43.3732L42.5037 59.9442H42.0516L41.4952 54.5189H24.2803L25.4627 30.1746H26.7843Z" fill="var(--fill-0, #E4B587)" id="Vector"/>
<path d="M17.3181 46.3037L18.5005 21.9594H29.4207L29.0729 23.594L25.5951 22.3768H19.8221L18.7092 46.3037H17.3181Z" fill="var(--fill-0, #E4B587)" id="Vector_2"/>
</g>
<g id="  (Stroke)">
<path d="M27.5663 29.4278L26.4541 53.3549H39.0095L40.1575 29.4278H42.9727L41.8605 53.3549H44.2396L43.1477 60.6913H41.3777L40.8204 55.2658H23.4959L24.7511 29.4278H27.5663ZM25.4629 30.1746L24.2799 54.519H41.4951L42.0516 59.9445H42.5037L43.3731 54.1018H41.0779L42.1909 30.1746H40.8693L39.7213 54.1018H25.6715L26.7845 30.1746H25.4629Z" fill="var(--fill-0, #E4B587)" id="Stroke"/>
<path d="M30.3431 21.2126L29.6269 24.5792L25.4675 23.1235H20.5351L19.4221 47.0506H16.5339L17.7891 21.2126H30.3431ZM18.5002 21.9594L17.318 46.3038H18.7095L19.8218 22.3766H25.5952L29.0726 23.5939L29.4205 21.9594H18.5002Z" fill="var(--fill-0, #E4B587)" id="Stroke_2"/>
</g>
</g>
</svg>