<?xml version="1.0" encoding="utf-8"?>
<svg xmlns="http://www.w3.org/2000/svg" fill="none" height="100%" overflow="visible" preserveAspectRatio="none" style="display: block;" viewBox="0 0 1934.22 144.805" width="100%">
<g id="Frame 3360">
<g id="   ">
<path d="M1844.53 102.897L1843.07 119.366H1834.1L1890.68 5.21875H1894.27L1934.22 119.366H1927.37L1906.01 58.379H1866.55L1844.53 102.897ZM1889.7 11.7415L1867.53 56.4222H1905.36L1889.7 11.7415Z" fill="var(--fill-0, #EDF0E3)" id="Vector"/>
<path d="M1827.65 5.21875L1822.27 119.366H1816.07L1821.13 7.17557H1755.9L1750.36 119.366H1744.16L1749.71 5.21875H1827.65Z" fill="var(--fill-0, #EDF0E3)" id="Vector_2"/>
<path d="M1658.93 62.2924C1656.16 98.3304 1668.23 120.182 1692.03 120.182C1712.74 120.182 1723.18 101.103 1727.58 90.8293L1730.84 93.1123C1721.22 110.887 1708.02 122.138 1691.87 122.138C1670.84 122.138 1648.98 104.69 1651.76 62.2924C1654.53 19.5685 1681.44 3.09863 1700.51 3.09863C1712.74 3.09863 1722.53 7.66454 1731.66 18.7532L1726.28 23.8083L1719.76 10.4367C1713.72 6.19694 1706.71 5.21852 1700.68 5.05545C1678.01 4.89239 1661.7 25.7651 1658.93 62.2924Z" fill="var(--fill-0, #EDF0E3)" id="Vector_3"/>
<path d="M1500.47 5.21875L1498.02 56.4222H1564.55L1567 5.21875H1573.2L1567.65 119.366H1561.46L1564.39 58.379H1498.02L1495.09 119.366H1488.89L1494.27 5.21875H1500.47Z" fill="var(--fill-0, #EDF0E3)" id="Vector_4"/>
<path d="M1388.61 102.897L1387.14 119.366H1378.17L1434.76 5.21875H1438.35L1478.3 119.366H1471.45L1450.09 58.379H1410.62L1388.61 102.897ZM1433.78 11.7415L1411.6 56.4222H1449.44L1433.78 11.7415Z" fill="var(--fill-0, #EDF0E3)" id="Vector_5"/>
<path d="M1342.82 5.21853C1352.93 3.91399 1391.25 0.326491 1391.25 31.3094C1391.25 51.856 1372.5 69.9566 1339.72 69.9566L1337.27 119.366H1331.08L1336.62 6.03387L1342.82 5.21853ZM1384.56 32.4509C1384.56 9.13217 1366.3 4.07706 1342.82 6.84921L1339.72 68.3259C1369.23 68.1629 1384.56 51.693 1384.56 32.4509Z" fill="var(--fill-0, #EDF0E3)" id="Vector_6"/>
<path d="M1272.9 2.77344C1305.02 2.77344 1320.19 30.9842 1317.41 62.2933C1313.66 103.876 1287.74 121.813 1263.28 121.813C1231.15 121.813 1216.8 93.4393 1219.08 62.2933C1221.86 19.2433 1248.44 2.77344 1272.9 2.77344ZM1264.25 120.019C1293.77 120.019 1308.12 90.341 1310.24 62.2933C1312.2 34.2456 1302.09 4.56718 1272.08 4.56718C1248.11 4.56718 1228.71 22.0155 1226.1 62.2933C1223.32 102.571 1243.06 120.019 1264.25 120.019Z" fill="var(--fill-0, #EDF0E3)" id="Vector_7"/>
<path d="M1217.88 12.5563L1201.9 7.175H1177.6L1172.38 119.366H1166.19L1171.41 7.175H1129.17L1130.8 0L1147.27 5.21818H1220.49L1217.88 12.5563Z" fill="var(--fill-0, #EDF0E3)" id="Vector_8"/>
<path d="M1055.71 62.2924C1052.94 98.3304 1065 120.182 1088.81 120.182C1109.52 120.182 1119.96 101.103 1124.36 90.8293L1127.62 93.1123C1118 110.887 1104.79 122.138 1088.65 122.138C1067.61 122.138 1045.76 104.69 1048.53 62.2924C1051.3 19.5685 1078.21 3.09863 1097.29 3.09863C1109.52 3.09863 1119.3 7.66454 1128.44 18.7532L1123.05 23.8083L1116.53 10.4367C1110.5 6.19694 1103.49 5.21852 1097.45 5.05545C1074.79 4.89239 1058.48 25.7651 1055.71 62.2924Z" fill="var(--fill-0, #EDF0E3)" id="Vector_9"/>
<path d="M1005.91 57.8898H987.16L984.388 117.41H1019.12L1035.59 111.702L1036.73 119.366H978.028L983.573 5.21875H1037.71L1036.57 12.883L1020.1 7.17557H989.606L987.323 55.9329H1010.15L1024.5 54.4653L1023.52 61.9665L1005.91 57.8898Z" fill="var(--fill-0, #EDF0E3)" id="Vector_10"/>
<path d="M916.197 5.21853C926.308 3.91399 964.629 0.326491 964.629 31.3094C964.629 51.856 945.876 69.9566 913.099 69.9566L910.653 119.366H904.456L910.001 6.03387L916.197 5.21853ZM957.943 32.4509C957.943 9.13217 939.679 4.07706 916.197 6.84921L913.099 68.3259C942.614 68.1629 957.943 51.693 957.943 32.4509Z" fill="var(--fill-0, #EDF0E3)" id="Vector_11"/>
<path d="M776.22 5.21875L773.937 54.1392C781.438 52.5085 824.977 45.3335 824.977 77.7841C824.977 95.3955 809.16 116.431 770.839 119.203V119.366H764.479L770.023 5.21875H776.22ZM817.802 79.5778C817.802 65.8801 811.769 49.4102 773.774 55.7699L771.002 117.573C798.071 115.127 817.802 100.94 817.802 79.5778Z" fill="var(--fill-0, #EDF0E3)" id="Vector_12"/>
<path d="M712.077 5.21875H714.849L753.333 119.366H746.973L710.935 12.5568L667.233 102.734L665.765 119.366H656.796L712.077 5.21875Z" fill="var(--fill-0, #EDF0E3)" id="Vector_13"/>
<path d="M633.595 57.8898H614.842L612.07 117.41H646.803L663.273 111.702L664.415 119.366H605.71L611.255 5.21875H665.393L664.252 12.883L647.782 7.17557H617.288L615.005 55.9329H637.835L652.185 54.4653L651.206 61.9665L633.595 57.8898Z" fill="var(--fill-0, #EDF0E3)" id="Vector_14"/>
<path d="M599.526 12.5563L583.546 7.175H559.249L554.03 119.366H547.834L553.052 7.175H510.817L512.448 0L528.918 5.21818H602.136L599.526 12.5563Z" fill="var(--fill-0, #EDF0E3)" id="Vector_15"/>
<path d="M471.729 2.77344C503.854 2.77344 519.019 30.9842 516.247 62.2933C512.496 103.876 486.569 121.813 462.108 121.813C429.984 121.813 415.634 93.4393 417.917 62.2933C420.689 19.2433 447.269 2.77344 471.729 2.77344ZM463.087 120.019C492.602 120.019 506.952 90.341 509.072 62.2933C511.029 34.2456 500.919 4.56718 470.914 4.56718C446.943 4.56718 427.538 22.0155 424.929 62.2933C422.157 102.571 441.888 120.019 463.087 120.019Z" fill="var(--fill-0, #EDF0E3)" id="Vector_16"/>
<path d="M225.787 100.94V119.366H217.307L247.475 28.8636L237.528 5.21875H244.377L284.165 100.287L326.563 5.21875H329.824L340.098 119.366H334.064L324.117 15.8182L283.513 106.81H280.415L248.78 31.6358L225.787 100.94Z" fill="var(--fill-0, #EDF0E3)" id="Vector_17"/>
<path d="M170.913 2.77344C203.038 2.77344 218.203 30.9842 215.431 62.2933C211.68 103.876 185.753 121.813 161.292 121.813C129.168 121.813 114.818 93.4393 117.101 62.2933C119.873 19.2433 146.453 2.77344 170.913 2.77344ZM162.271 120.019C191.786 120.019 206.136 90.341 208.256 62.2933C210.213 34.2456 200.102 4.56718 170.098 4.56718C146.127 4.56718 126.722 22.0155 124.113 62.2933C121.341 102.571 141.072 120.019 162.271 120.019Z" fill="var(--fill-0, #EDF0E3)" id="Vector_18"/>
<path d="M68.8148 3.751L102.081 117.41H112.68L108.603 144.805H106.483L103.874 119.366H11.7409L2.11989 144.805H0L3.26136 117.41H13.0454L65.2273 3.751H68.8148ZM64.2489 11.2521L15.4914 117.41H95.0688L64.2489 11.2521Z" fill="var(--fill-0, #EDF0E3)" id="Vector_19"/>
</g>
</g>
</svg>