<?xml version="1.0" encoding="utf-8"?>
<svg xmlns="http://www.w3.org/2000/svg" fill="none" height="100%" overflow="visible" preserveAspectRatio="none" style="display: block;" viewBox="0 0 550.979 41.2494" width="100%">
<g id="Frame 3360">
<g id="   ">
<path d="M525.431 29.3116L525.013 34.0032H522.458L538.577 1.48721H539.599L550.979 34.0032H549.029L542.943 16.6304H531.702L525.431 29.3116ZM538.298 3.34527L531.981 16.0729H542.758L538.298 3.34527Z" fill="var(--fill-0, #EDF0E3)" id="Vector"/>
<path d="M520.623 1.48721L519.09 34.0032H517.325L518.765 2.04463H500.184L498.605 34.0032H496.84L498.419 1.48721H520.623Z" fill="var(--fill-0, #EDF0E3)" id="Vector_2"/>
<path d="M472.561 17.745C471.771 28.0108 475.208 34.2352 481.99 34.2352C487.89 34.2352 490.863 28.8004 492.117 25.874L493.046 26.5243C490.305 31.5875 486.543 34.7927 481.944 34.7927C475.952 34.7927 469.727 29.8224 470.517 17.745C471.307 5.57474 478.971 0.883145 484.406 0.883145C487.89 0.883145 490.677 2.18378 493.278 5.34248L491.745 6.78247L489.887 2.97346C488.168 1.76572 486.171 1.48701 484.452 1.44056C477.996 1.39411 473.35 7.33989 472.561 17.745Z" fill="var(--fill-0, #EDF0E3)" id="Vector_3"/>
<path d="M427.421 1.48721L426.724 16.0729H445.676L446.373 1.48721H448.138L446.559 34.0032H444.794L445.63 16.6304H426.724L425.888 34.0032H424.123L425.656 1.48721H427.421Z" fill="var(--fill-0, #EDF0E3)" id="Vector_4"/>
<path d="M395.558 29.3116L395.14 34.0032H392.585L408.704 1.48721H409.726L421.106 34.0032H419.155L413.07 16.6304H401.829L395.558 29.3116ZM408.425 3.34527L402.108 16.0729H412.884L408.425 3.34527Z" fill="var(--fill-0, #EDF0E3)" id="Vector_5"/>
<path d="M382.513 1.48697C385.393 1.11537 396.309 0.0934344 396.309 8.9192C396.309 14.7721 390.967 19.9282 381.63 19.9282L380.934 34.0029H379.169L380.748 1.71923L382.513 1.48697ZM394.405 9.24436C394.405 2.60181 389.202 1.16182 382.513 1.95149L381.63 19.4637C390.038 19.4172 394.405 14.7256 394.405 9.24436Z" fill="var(--fill-0, #EDF0E3)" id="Vector_6"/>
<path d="M362.596 0.789881C371.747 0.789881 376.067 8.82597 375.277 17.7446C374.209 29.5897 366.823 34.6994 359.855 34.6994C350.704 34.6994 346.617 26.6169 347.267 17.7446C348.057 5.48147 355.628 0.789881 362.596 0.789881ZM360.134 34.1884C368.542 34.1884 372.63 25.7343 373.233 17.7446C373.791 9.755 370.911 1.30084 362.364 1.30084C355.535 1.30084 350.008 6.27115 349.265 17.7446C348.475 29.2181 354.095 34.1884 360.134 34.1884Z" fill="var(--fill-0, #EDF0E3)" id="Vector_7"/>
<path d="M346.924 3.57676L342.372 2.04386H335.45L333.964 34.0024H332.199L333.685 2.04386H321.654L322.119 0L326.81 1.48644H347.667L346.924 3.57676Z" fill="var(--fill-0, #EDF0E3)" id="Vector_8"/>
<path d="M300.727 17.745C299.937 28.0108 303.375 34.2352 310.157 34.2352C316.056 34.2352 319.029 28.8004 320.283 25.874L321.212 26.5243C318.471 31.5875 314.709 34.7927 310.11 34.7927C304.118 34.7927 297.893 29.8224 298.683 17.745C299.473 5.57474 307.137 0.883145 312.572 0.883145C316.056 0.883145 318.843 2.18378 321.444 5.34248L319.911 6.78247L318.053 2.97346C316.335 1.76572 314.337 1.48701 312.618 1.44056C306.162 1.39411 301.517 7.33989 300.727 17.745Z" fill="var(--fill-0, #EDF0E3)" id="Vector_9"/>
<path d="M286.543 16.491H281.201L280.411 33.4458H290.305L294.997 31.82L295.322 34.0032H278.6L280.179 1.48721H295.601L295.276 3.67043L290.584 2.04463H281.898L281.247 15.9336H287.751L291.838 15.5155L291.56 17.6523L286.543 16.491Z" fill="var(--fill-0, #EDF0E3)" id="Vector_10"/>
<path d="M260.987 1.48697C263.867 1.11537 274.783 0.0934344 274.783 8.9192C274.783 14.7721 269.441 19.9282 260.104 19.9282L259.408 34.0029H257.642L259.222 1.71923L260.987 1.48697ZM272.878 9.24436C272.878 2.60181 267.676 1.16182 260.987 1.95149L260.104 19.4637C268.512 19.4172 272.878 14.7256 272.878 9.24436Z" fill="var(--fill-0, #EDF0E3)" id="Vector_11"/>
<path d="M221.113 1.48721L220.462 15.4226C222.599 14.9581 235.002 12.9143 235.002 22.1581C235.002 27.1748 230.496 33.1671 219.58 33.9567V34.0032H217.768L219.348 1.48721H221.113ZM232.958 22.6691C232.958 18.7671 231.239 14.0755 220.416 15.8871L219.626 33.4922C227.337 32.7954 232.958 28.7542 232.958 22.6691Z" fill="var(--fill-0, #EDF0E3)" id="Vector_12"/>
<path d="M202.841 1.48721H203.631L214.593 34.0032H212.782L202.516 3.57753L190.067 29.2651L189.649 34.0032H187.094L202.841 1.48721Z" fill="var(--fill-0, #EDF0E3)" id="Vector_13"/>
<path d="M180.485 16.491H175.143L174.354 33.4458H184.248L188.939 31.82L189.264 34.0032H172.542L174.121 1.48721H189.543L189.218 3.67043L184.526 2.04463H175.84L175.19 15.9336H181.693L185.781 15.5155L185.502 17.6523L180.485 16.491Z" fill="var(--fill-0, #EDF0E3)" id="Vector_14"/>
<path d="M170.78 3.57676L166.228 2.04386H159.307L157.821 34.0024H156.055L157.542 2.04386H145.511L145.975 0L150.667 1.48644H171.524L170.78 3.57676Z" fill="var(--fill-0, #EDF0E3)" id="Vector_15"/>
<path d="M134.376 0.789881C143.527 0.789881 147.847 8.82597 147.057 17.7446C145.989 29.5897 138.603 34.6994 131.635 34.6994C122.484 34.6994 118.397 26.6169 119.047 17.7446C119.836 5.48147 127.408 0.789881 134.376 0.789881ZM131.914 34.1884C140.322 34.1884 144.409 25.7343 145.013 17.7446C145.571 9.755 142.691 1.30084 134.144 1.30084C127.315 1.30084 121.787 6.27115 121.044 17.7446C120.255 29.2181 125.875 34.1884 131.914 34.1884Z" fill="var(--fill-0, #EDF0E3)" id="Vector_16"/>
<path d="M64.3174 28.7542V34.0032H61.902L70.4955 8.22267L67.6619 1.48721H69.6129L80.947 28.5684L93.0244 1.48721H93.9534L96.8798 34.0032H95.1612L92.3276 4.50655L80.7612 30.4264H79.8787L70.8671 9.01234L64.3174 28.7542Z" fill="var(--fill-0, #EDF0E3)" id="Vector_17"/>
<path d="M48.6863 0.789881C57.8372 0.789881 62.1572 8.82597 61.3675 17.7446C60.2991 29.5897 52.9134 34.6994 45.9457 34.6994C36.7947 34.6994 32.707 26.6169 33.3573 17.7446C34.147 5.48147 41.7186 0.789881 48.6863 0.789881ZM46.2244 34.1884C54.6321 34.1884 58.7198 25.7343 59.3237 17.7446C59.8811 9.755 57.0011 1.30084 48.454 1.30084C41.6257 1.30084 36.098 6.27115 35.3547 17.7446C34.5651 29.2181 40.1857 34.1884 46.2244 34.1884Z" fill="var(--fill-0, #EDF0E3)" id="Vector_18"/>
<path d="M19.6025 1.06896L29.0786 33.4456H32.0979L30.9366 41.2494H30.3327L29.5895 34.003H3.3445L0.603868 41.2494H0L0.929027 33.4456H3.71611L18.5806 1.06896H19.6025ZM18.3018 3.20572L4.41287 33.4456H27.0812L18.3018 3.20572Z" fill="var(--fill-0, #EDF0E3)" id="Vector_19"/>
</g>
</g>
</svg>