<?xml version="1.0" encoding="utf-8"?>
<svg xmlns="http://www.w3.org/2000/svg" fill="none" height="100%" overflow="visible" preserveAspectRatio="none" style="display: block;" viewBox="0 0 79 104" width="100%">
<g id="Frame 3316">
<path d="M39.5 1C50.0277 1 59.631 6.61484 66.6348 15.835C73.6391 25.0558 78 37.839 78 52C78 66.161 73.6391 78.9442 66.6348 88.165C59.631 97.3852 50.0277 103 39.5 103C28.9723 103 19.369 97.3852 12.3652 88.165C5.36091 78.9442 1 66.161 1 52C1 37.839 5.36091 25.0558 12.3652 15.835C19.369 6.61484 28.9723 1 39.5 1Z" id="Ellipse 146" stroke="var(--stroke-0, #E4B587)" stroke-width="2"/>
<g id=" ">
<path d="M35.8638 40.4034L34.3737 72.4412H53.1866L54.7233 40.4034H56.4928L55.0027 72.4412H58.0761L56.9119 80.2644H56.3066L55.5615 73H32.511L34.0943 40.4034H35.8638Z" fill="var(--fill-0, #E4B587)" id="Vector"/>
<path d="M23.1886 62L24.7719 29.4034H39.3938L38.9281 31.592L34.2715 29.9622H26.5414L25.0513 62H23.1886Z" fill="var(--fill-0, #E4B587)" id="Vector_2"/>
</g>
<g id="  (Stroke)">
<path d="M36.9111 39.4033L35.4219 71.4414H52.2334L53.7705 39.4033H57.54L56.0508 71.4414H59.2363L57.7744 81.2646H55.4043L54.6582 74H31.4609L33.1416 39.4033H36.9111ZM34.0947 40.4033L32.5107 73H55.5615L56.3066 80.2646H56.9121L58.0762 72.4414H55.0029L56.4932 40.4033H54.7236L53.1865 72.4414H34.374L35.8643 40.4033H34.0947Z" fill="var(--fill-0, #E4B587)" id="Stroke"/>
<path d="M40.6289 28.4033L39.6699 32.9111L34.1006 30.9619H27.4961L26.0059 63H22.1387L23.8193 28.4033H40.6289ZM24.7715 29.4033L23.1885 62H25.0518L26.541 29.9619H34.2715L38.9277 31.5918L39.3936 29.4033H24.7715Z" fill="var(--fill-0, #E4B587)" id="Stroke_2"/>
</g>
</g>
</svg>