<?xml version="1.0" encoding="utf-8"?>
<svg xmlns="http://www.w3.org/2000/svg" fill="none" height="100%" overflow="visible" preserveAspectRatio="none" style="display: block;" viewBox="0 0 201.976 166.912" width="100%">
<g id="45">
<path d="M127.224 76.032L136.952 0H201.976L198.136 9.472H139L131.832 65.792C183.032 67.072 196.088 97.536 196.088 119.808C196.088 143.36 179.448 166.912 154.104 166.912C136.952 166.912 120.568 159.488 112.888 132.864L118.52 129.536C123.64 157.44 139 164.352 154.36 164.352C174.84 164.352 190.2 144.384 190.2 122.88C190.2 97.536 172.024 75.776 127.224 76.032Z" fill="var(--fill-0, white)" id="Vector"/>
<path d="M87.04 0L77.312 104.192H100.608L98.048 112.128H76.544L71.68 164.352H62.464L67.584 112.128H0L81.664 0H87.04ZM9.728 104.192H68.352L77.312 10.752L9.728 104.192Z" fill="var(--fill-0, white)" id="Vector_2"/>
</g>
</svg>