<?xml version="1.0" encoding="utf-8"?>
<svg xmlns="http://www.w3.org/2000/svg" fill="none" height="100%" overflow="visible" preserveAspectRatio="none" style="display: block;" viewBox="0 0 58.6669 69.3143" width="100%">
<path d="M2.66667 5.28381V64.0305C2.67537 64.4993 2.80753 64.9575 3.04981 65.3589C3.29209 65.7603 3.63592 66.0908 4.04665 66.3169C4.45737 66.5431 4.92047 66.6569 5.38923 66.647C5.858 66.6371 6.31587 66.5038 6.71667 66.2605L54.7433 36.8871C55.127 36.6549 55.4442 36.3277 55.6644 35.9371C55.8846 35.5464 56.0003 35.1056 56.0003 34.6571C56.0003 34.2087 55.8846 33.7679 55.6644 33.3772C55.4442 32.9866 55.127 32.6593 54.7433 32.4271L6.71667 3.05381C6.31587 2.8105 5.858 2.67717 5.38923 2.66726C4.92047 2.65735 4.45737 2.77122 4.04665 2.99737C3.63592 3.22352 3.29209 3.55397 3.04981 3.95539C2.80753 4.35681 2.67537 4.81502 2.66667 5.28381Z" id="Vector" stroke="var(--stroke-0, #E4B587)" stroke-linecap="round" stroke-linejoin="round" stroke-width="5.33333"/>
</svg>