<?xml version="1.0" encoding="utf-8"?>
<svg xmlns="http://www.w3.org/2000/svg" fill="none" height="100%" overflow="visible" preserveAspectRatio="none" style="display: block;" viewBox="0 0 214.992 168.192" width="100%">
<g id="30">
<path d="M214.992 56.832C214.992 93.44 194.768 131.072 156.112 131.072C130.768 131.072 105.68 112.896 105.68 71.936C105.68 36.352 126.928 0.255997 167.12 0.255997C192.208 0.255997 214.992 19.968 214.992 56.832ZM211.664 56.832C211.664 15.872 184.784 3.072 167.12 3.072C136.4 3.072 116.176 33.536 116.176 71.424C116.176 117.76 143.056 127.744 158.672 127.744C190.416 127.744 211.664 95.488 211.664 56.832Z" fill="var(--fill-0, white)" id="Vector"/>
<path d="M25.6 83.968C71.424 62.976 77.056 41.984 77.056 28.416C77.056 15.616 69.376 2.304 53.76 2.304C37.376 2.304 24.32 14.848 22.528 37.888L17.408 35.84C21.248 12.8 36.096 0 54.272 0C70.912 0 86.016 10.496 86.016 29.696C86.016 46.08 75.52 58.88 50.176 73.728C75.264 84.224 85.504 101.632 85.504 119.808C85.76 144.64 67.328 168.192 40.96 168.192C24.832 168.192 5.12 159.744 0 134.656L5.888 131.84C6.144 152.32 23.04 165.888 40.96 165.888C64.256 165.888 80.128 145.664 80.128 123.904C80.128 104.448 67.072 89.344 38.912 80.128C35.072 82.176 31.232 84.224 26.88 86.272L25.6 83.968Z" fill="var(--fill-0, white)" id="Vector_2"/>
</g>
</svg>