<?xml version="1.0" encoding="utf-8"?>
<svg xmlns="http://www.w3.org/2000/svg" fill="none" height="100%" overflow="visible" preserveAspectRatio="none" style="display: block;" viewBox="0 0 1280 95.827" width="100%">
<g id="Frame 3360">
<g id="   ">
<path d="M1220.65 68.0935L1219.68 78.9927H1213.74L1251.19 3.45371H1253.56L1280 78.9927H1275.47L1261.33 38.6333H1235.22L1220.65 68.0935ZM1250.54 7.77023L1235.86 37.3384H1260.9L1250.54 7.77023Z" fill="var(--fill-0, #EDF0E3)" id="Vector"/>
<path d="M1209.48 3.45371L1205.92 78.9927H1201.82L1205.16 4.74867H1162L1158.33 78.9927H1154.23L1157.9 3.45371H1209.48Z" fill="var(--fill-0, #EDF0E3)" id="Vector_2"/>
<path d="M1097.82 41.2229C1095.99 65.0717 1103.97 79.532 1119.73 79.532C1133.44 79.532 1140.34 66.9062 1143.26 60.1077L1145.41 61.6185C1139.05 73.381 1130.31 80.827 1119.62 80.827C1105.7 80.827 1091.24 69.2803 1093.08 41.2229C1094.91 12.9497 1112.72 2.05055 1125.34 2.05055C1133.44 2.05055 1139.91 5.07211 1145.95 12.4102L1142.39 15.7555L1138.08 6.90663C1134.08 4.1009 1129.44 3.45342 1125.45 3.3455C1110.45 3.23759 1099.66 17.0504 1097.82 41.2229Z" fill="var(--fill-0, #EDF0E3)" id="Vector_3"/>
<path d="M992.958 3.45371L991.339 37.3384H1035.37L1036.99 3.45371H1041.09L1037.42 78.9927H1033.32L1035.26 38.6333H991.339L989.397 78.9927H985.296L988.857 3.45371H992.958Z" fill="var(--fill-0, #EDF0E3)" id="Vector_4"/>
<path d="M918.935 68.0935L917.963 78.9927H912.028L949.474 3.45371H951.848L978.287 78.9927H973.754L959.618 38.6333H933.503L918.935 68.0935ZM948.827 7.77023L934.15 37.3384H959.186L948.827 7.77023Z" fill="var(--fill-0, #EDF0E3)" id="Vector_5"/>
<path d="M888.631 3.45312C895.321 2.58983 920.681 0.215742 920.681 20.7192C920.681 34.3162 908.271 46.2945 886.58 46.2945L884.962 78.9921H880.861L884.53 3.99269L888.631 3.45312ZM916.256 21.4746C916.256 6.04303 904.17 2.69774 888.631 4.53225L886.58 45.2154C906.112 45.1075 916.256 34.2083 916.256 21.4746Z" fill="var(--fill-0, #EDF0E3)" id="Vector_6"/>
<path d="M842.359 1.83475C863.618 1.83475 873.654 20.5037 871.82 41.223C869.338 68.7407 852.179 80.6112 835.993 80.6112C814.734 80.6112 805.237 61.8343 806.748 41.223C808.583 12.734 826.172 1.83475 842.359 1.83475ZM836.64 79.4241C856.172 79.4241 865.669 59.784 867.071 41.223C868.366 22.6619 861.676 3.02179 841.82 3.02179C825.957 3.02179 813.115 14.5685 811.388 41.223C809.554 67.8774 822.611 79.4241 836.64 79.4241Z" fill="var(--fill-0, #EDF0E3)" id="Vector_7"/>
<path d="M805.951 8.30929L795.375 4.74817H779.296L775.843 78.9922H771.742L775.196 4.74817H747.246L748.325 0L759.224 3.45321H807.677L805.951 8.30929Z" fill="var(--fill-0, #EDF0E3)" id="Vector_8"/>
<path d="M698.631 41.2229C696.796 65.0717 704.782 79.532 720.537 79.532C734.242 79.532 741.148 66.9062 744.062 60.1077L746.22 61.6185C739.853 73.381 731.112 80.827 720.429 80.827C706.508 80.827 692.048 69.2803 693.882 41.2229C695.717 12.9497 713.523 2.05055 726.148 2.05055C734.242 2.05055 740.717 5.07211 746.76 12.4102L743.199 15.7555L738.882 6.90663C734.889 4.1009 730.249 3.45342 726.256 3.3455C711.256 3.23759 700.465 17.0504 698.631 41.2229Z" fill="var(--fill-0, #EDF0E3)" id="Vector_9"/>
<path d="M665.678 38.3096H653.268L651.434 77.6978H674.419L685.319 73.9208L686.074 78.9927H647.225L650.894 3.45371H686.721L685.966 8.52561L675.067 4.74867H654.887L653.376 37.0146H668.484L677.98 36.0434L677.333 41.0074L665.678 38.3096Z" fill="var(--fill-0, #EDF0E3)" id="Vector_10"/>
<path d="M606.308 3.45312C612.998 2.58983 638.358 0.215742 638.358 20.7192C638.358 34.3162 625.948 46.2945 604.257 46.2945L602.639 78.9921H598.538L602.207 3.99269L606.308 3.45312ZM633.933 21.4746C633.933 6.04303 621.847 2.69774 606.308 4.53225L604.257 45.2154C623.79 45.1075 633.933 34.2083 633.933 21.4746Z" fill="var(--fill-0, #EDF0E3)" id="Vector_11"/>
<path d="M513.675 3.45371L512.165 35.8276C517.129 34.7485 545.941 30.0003 545.941 51.4749C545.941 63.1295 535.474 77.0503 510.114 78.8848V78.9927H505.906L509.575 3.45371H513.675ZM541.193 52.662C541.193 43.5973 537.2 32.6981 512.057 36.9067L510.222 77.8057C528.136 76.187 541.193 66.7986 541.193 52.662Z" fill="var(--fill-0, #EDF0E3)" id="Vector_12"/>
<path d="M471.228 3.45371H473.062L498.53 78.9927H494.321L470.472 8.30979L441.552 67.9856L440.581 78.9927H434.645L471.228 3.45371Z" fill="var(--fill-0, #EDF0E3)" id="Vector_13"/>
<path d="M419.291 38.3096H406.881L405.047 77.6978H428.032L438.931 73.9208L439.687 78.9927H400.838L404.507 3.45371H440.334L439.579 8.52561L428.68 4.74867H408.5L406.989 37.0146H422.097L431.593 36.0434L430.946 41.0074L419.291 38.3096Z" fill="var(--fill-0, #EDF0E3)" id="Vector_14"/>
<path d="M396.746 8.30929L386.17 4.74817H370.091L366.638 78.9922H362.537L365.991 4.74817H338.041L339.12 0L350.02 3.45321H398.472L396.746 8.30929Z" fill="var(--fill-0, #EDF0E3)" id="Vector_15"/>
<path d="M312.174 1.83475C333.433 1.83475 343.469 20.5037 341.634 41.223C339.152 68.7407 321.994 80.6112 305.807 80.6112C284.549 80.6112 275.052 61.8343 276.563 41.223C278.397 12.734 295.987 1.83475 312.174 1.83475ZM306.455 79.4241C325.987 79.4241 335.483 59.784 336.886 41.223C338.181 22.6619 331.491 3.02179 311.635 3.02179C295.771 3.02179 282.93 14.5685 281.203 41.223C279.369 67.8774 292.426 79.4241 306.455 79.4241Z" fill="var(--fill-0, #EDF0E3)" id="Vector_16"/>
<path d="M149.418 66.7986V78.9927H143.807L163.77 19.1011L157.188 3.45371H161.72L188.051 66.3669L216.108 3.45371H218.266L225.065 78.9927H221.072L214.489 10.468L187.619 70.6834H185.569L164.634 20.9356L149.418 66.7986Z" fill="var(--fill-0, #EDF0E3)" id="Vector_17"/>
<path d="M113.105 1.83475C134.363 1.83475 144.399 20.5037 142.565 41.223C140.083 68.7407 122.925 80.6112 106.738 80.6112C85.4789 80.6112 75.9825 61.8343 77.4933 41.223C79.3278 12.734 96.9176 1.83475 113.105 1.83475ZM107.385 79.4241C126.917 79.4241 136.414 59.784 137.817 41.223C139.112 22.6619 132.421 3.02179 112.565 3.02179C96.7018 3.02179 83.8602 14.5685 82.1336 41.223C80.299 67.8774 93.3565 79.4241 107.385 79.4241Z" fill="var(--fill-0, #EDF0E3)" id="Vector_18"/>
<path d="M45.5392 2.48234L67.5535 77.6976H74.5678L71.87 95.827H70.4671L68.7405 78.9926H7.76973L1.40287 95.827H0L2.15826 77.6976H8.63302L43.1652 2.48234H45.5392ZM42.5177 7.44634L10.2517 77.6976H62.9132L42.5177 7.44634Z" fill="var(--fill-0, #EDF0E3)" id="Vector_19"/>
</g>
</g>
</svg>