<?xml version="1.0" encoding="utf-8"?>
<svg xmlns="http://www.w3.org/2000/svg" fill="none" height="100%" overflow="visible" preserveAspectRatio="none" style="display: block;" viewBox="0 0 188.229 168.704" width="100%">
<g id="95">
<path d="M113.477 77.8241L123.205 1.79205H188.229L184.389 11.2641H125.253L118.085 67.584C169.285 68.864 182.341 99.3281 182.341 121.6C182.341 145.152 165.701 168.704 140.357 168.704C123.205 168.704 106.821 161.28 99.1407 134.656L104.773 131.328C109.893 159.232 125.253 166.144 140.613 166.144C161.093 166.144 176.453 146.176 176.453 124.672C176.453 99.3281 158.277 77.5681 113.477 77.8241Z" fill="var(--fill-0, white)" id="Vector"/>
<path d="M1.36871 163.584C36.6967 163.584 67.1607 137.472 77.6567 76.0321C81.7527 51.4561 82.7767 2.30405 45.4007 2.56005C21.8487 2.56005 11.6087 30.4641 10.0727 42.496C3.92872 94.2081 41.3047 104.448 68.1847 78.8481L69.9767 81.1521C36.6967 111.36 -5.54328 89.0881 0.600717 44.2881C3.92872 20.2241 22.8727 5.34058e-05 46.1687 5.34058e-05C72.7927 5.34058e-05 95.3207 25.0881 87.1287 76.0321C76.8887 139.52 36.4407 166.144 1.36871 166.144V163.584Z" fill="var(--fill-0, white)" id="Vector_2"/>
</g>
</svg>